# Blender v2.81 (sub 16) OBJ File: 'Hovercrafttriangles.blend'
# www.blender.org
mtllib track_final.mtl
o Plane.002
v 34.954346 7.512550 -53.632324
v 17.610510 7.512549 -59.281021
v 28.598196 7.512551 -37.636864
v 13.233109 7.512550 -42.634880
v 17.610510 7.512549 -59.281021
v -0.424457 7.512550 -62.789116
v 13.233109 7.512550 -42.634880
v -2.483080 7.512549 -45.700600
v -0.424457 7.512550 -62.789116
v -19.446533 7.512552 -63.193428
v -2.483080 7.512549 -45.700600
v -17.767809 7.512550 -46.063408
v -19.446533 7.512552 -63.193428
v -38.884567 7.512551 -57.979889
v -17.767809 7.512550 -46.063408
v -31.285616 7.512547 -42.536072
v -38.884567 7.512551 -57.979889
v -54.986465 7.512550 -44.579002
v -31.285616 7.512547 -42.536072
v -41.221367 7.512551 -34.245682
v -54.986465 7.512550 -44.579002
v -63.753929 7.512551 -26.384548
v -41.221367 7.512551 -34.245682
v -47.186890 7.512549 -21.716732
v -63.753929 7.512551 -26.384548
v -65.154373 7.512550 -5.796249
v -47.186890 7.512549 -21.716732
v -48.167007 7.512549 -8.568438
v -65.154373 7.512550 -5.796249
v -57.830963 7.512550 13.031497
v -48.167007 7.512549 -8.568438
v -43.043701 7.512549 4.222840
v -57.830963 7.512550 13.031497
v -46.855156 7.512551 27.901165
v -43.043701 7.512549 4.222840
v -33.573544 7.512549 16.953371
v -46.855156 7.512551 27.901165
v -35.418167 7.512550 41.077705
v -33.573544 7.512549 16.953371
v -22.443764 7.512549 29.767513
v -35.418167 7.512550 41.077705
v -24.465895 7.512551 53.961205
v -22.443764 7.512549 29.767513
v -11.105015 7.512550 43.110283
v -24.465895 7.512551 53.961205
v -14.046645 7.512552 67.503685
v -11.105015 7.512550 43.110283
v -0.537562 7.512550 56.837845
v -14.046645 7.512552 67.503685
v -0.051763 7.512550 82.140900
v -0.537562 7.512550 56.837845
v 8.456067 7.512550 67.178543
v -0.051763 7.512550 82.140900
v 23.089676 7.512548 83.923431
v 8.456067 7.512550 67.178543
v 17.900982 7.512552 67.512062
v 23.089676 7.512548 83.923431
v 40.654411 7.512550 73.585564
v 17.900982 7.512552 67.512062
v 29.603579 7.512550 60.389557
v 40.654411 7.512550 73.585564
v 53.682091 7.512550 59.967720
v 29.603579 7.512550 60.389557
v 40.290993 7.512550 49.154121
v 53.682091 7.512550 59.967720
v 64.173866 7.512550 44.769539
v 40.290993 7.512550 49.154121
v 49.322716 7.512550 36.069031
v 64.173866 7.512550 44.769539
v 72.258484 7.512549 28.110271
v 49.322716 7.512550 36.069031
v 56.239960 7.512552 21.812456
v 72.258484 7.512549 28.110271
v 77.638954 7.512549 9.956280
v 56.239960 7.512552 21.812456
v 60.667557 7.512549 7.088031
v 77.638954 7.512549 9.956280
v 77.677956 7.512550 -10.164053
v 60.667557 7.512549 7.088031
v 60.777046 7.512550 -6.906024
v 77.677956 7.512550 -10.164053
v 69.372551 7.512550 -29.118515
v 60.777046 7.512550 -6.906024
v 55.414352 7.512550 -19.047558
v 69.372551 7.512550 -29.118515
v 55.064339 7.512549 -42.944275
v 55.414352 7.512550 -19.047558
v 45.108650 7.512549 -28.903625
v 55.064339 7.512549 -42.944275
v 38.502968 7.512550 -52.083771
v 45.108650 7.512549 -28.903625
v 31.610800 7.512550 -36.311852
v 38.502968 7.512550 -52.083771
v 21.241199 7.512550 -58.240593
v 31.610800 7.512550 -36.311852
v 16.488699 7.512550 -41.697639
vt 0.000000 0.000000
vt 1.000000 1.000000
vt 0.000000 1.000000
vt 0.000000 0.000000
vt 1.000000 1.000000
vt 0.000000 1.000000
vt 0.000000 0.000000
vt 1.000000 1.000000
vt 0.000000 1.000000
vt 0.000000 0.000000
vt 1.000000 1.000000
vt 0.000000 1.000000
vt 0.000000 0.000000
vt 1.000000 1.000000
vt 0.000000 1.000000
vt 0.000000 0.000000
vt 1.000000 1.000000
vt 0.000000 1.000000
vt 0.000000 0.000000
vt 1.000000 1.000000
vt 0.000000 1.000000
vt 0.000000 0.000000
vt 1.000000 1.000000
vt 0.000000 1.000000
vt 0.000000 0.000000
vt 1.000000 1.000000
vt 0.000000 1.000000
vt 0.000000 0.000000
vt 1.000000 1.000000
vt 0.000000 1.000000
vt 0.000000 0.000000
vt 1.000000 1.000000
vt 0.000000 1.000000
vt 0.000000 0.000000
vt 1.000000 1.000000
vt 0.000000 1.000000
vt 0.000000 0.000000
vt 1.000000 1.000000
vt 0.000000 1.000000
vt 0.000000 0.000000
vt 1.000000 1.000000
vt 0.000000 1.000000
vt 0.000000 0.000000
vt 1.000000 1.000000
vt 0.000000 1.000000
vt 0.000000 0.000000
vt 1.000000 1.000000
vt 0.000000 1.000000
vt 0.000000 0.000000
vt 1.000000 1.000000
vt 0.000000 1.000000
vt 0.000000 0.000000
vt 1.000000 1.000000
vt 0.000000 1.000000
vt 0.000000 0.000000
vt 1.000000 1.000000
vt 0.000000 1.000000
vt 0.000000 0.000000
vt 1.000000 1.000000
vt 0.000000 1.000000
vt 0.000000 0.000000
vt 1.000000 1.000000
vt 0.000000 1.000000
vt 0.000000 0.000000
vt 1.000000 1.000000
vt 0.000000 1.000000
vt 0.000000 0.000000
vt 1.000000 1.000000
vt 0.000000 1.000000
vt 0.000000 0.000000
vt 1.000000 1.000000
vt 0.000000 1.000000
vt 1.000000 0.000000
vt 1.000000 0.000000
vt 1.000000 0.000000
vt 1.000000 0.000000
vt 1.000000 0.000000
vt 1.000000 0.000000
vt 1.000000 0.000000
vt 1.000000 0.000000
vt 1.000000 0.000000
vt 1.000000 0.000000
vt 1.000000 0.000000
vt 1.000000 0.000000
vt 1.000000 0.000000
vt 1.000000 0.000000
vt 1.000000 0.000000
vt 1.000000 0.000000
vt 1.000000 0.000000
vt 1.000000 0.000000
vt 1.000000 0.000000
vt 1.000000 0.000000
vt 1.000000 0.000000
vt 1.000000 0.000000
vt 1.000000 0.000000
vt 1.000000 0.000000
vn -0.0000 1.0000 0.0000
usemtl None
s off
f 1/1/1 4/2/1 3/3/1
f 5/4/1 8/5/1 7/6/1
f 9/7/1 12/8/1 11/9/1
f 13/10/1 16/11/1 15/12/1
f 17/13/1 20/14/1 19/15/1
f 21/16/1 24/17/1 23/18/1
f 25/19/1 28/20/1 27/21/1
f 29/22/1 32/23/1 31/24/1
f 33/25/1 36/26/1 35/27/1
f 37/28/1 40/29/1 39/30/1
f 41/31/1 44/32/1 43/33/1
f 45/34/1 48/35/1 47/36/1
f 49/37/1 52/38/1 51/39/1
f 53/40/1 56/41/1 55/42/1
f 57/43/1 60/44/1 59/45/1
f 61/46/1 64/47/1 63/48/1
f 65/49/1 68/50/1 67/51/1
f 69/52/1 72/53/1 71/54/1
f 73/55/1 76/56/1 75/57/1
f 77/58/1 80/59/1 79/60/1
f 81/61/1 84/62/1 83/63/1
f 85/64/1 88/65/1 87/66/1
f 89/67/1 92/68/1 91/69/1
f 93/70/1 96/71/1 95/72/1
f 1/1/1 2/73/1 4/2/1
f 5/4/1 6/74/1 8/5/1
f 9/7/1 10/75/1 12/8/1
f 13/10/1 14/76/1 16/11/1
f 17/13/1 18/77/1 20/14/1
f 21/16/1 22/78/1 24/17/1
f 25/19/1 26/79/1 28/20/1
f 29/22/1 30/80/1 32/23/1
f 33/25/1 34/81/1 36/26/1
f 37/28/1 38/82/1 40/29/1
f 41/31/1 42/83/1 44/32/1
f 45/34/1 46/84/1 48/35/1
f 49/37/1 50/85/1 52/38/1
f 53/40/1 54/86/1 56/41/1
f 57/43/1 58/87/1 60/44/1
f 61/46/1 62/88/1 64/47/1
f 65/49/1 66/89/1 68/50/1
f 69/52/1 70/90/1 72/53/1
f 73/55/1 74/91/1 76/56/1
f 77/58/1 78/92/1 80/59/1
f 81/61/1 82/93/1 84/62/1
f 85/64/1 86/94/1 88/65/1
f 89/67/1 90/95/1 92/68/1
f 93/70/1 94/96/1 96/71/1
